<svg xmlns="http://www.w3.org/2000/svg" viewBox="0 0 64 64"><polygon fill="#b8e5f4" points="23 38 15 38 17 17 21 17 23 38"/><polygon fill="#9edcf7" points="19 17 17 38 23 38 21 17 19 17"/><polyline fill="none" stroke="#000" stroke-linecap="round" stroke-linejoin="round" stroke-width="2" points="16.6 21.24 17 17 21 17 23 38 15 38 16.3 24.32"/><path fill="#ffd4cf" d="M59,37.38S47,32.19,46.11,30.8,43,23.73,40.24,22.07L29.9,15.78a.71.71,0,0,0-1,.34c-.48,1.14-1.12,3.31.2,4.52,1.86,1.7,7.31,4.44,7.31,4.44a4.63,4.63,0,0,1-2.28,1.3c-1.05.06-15.82.31-17.1.48s-3.59,1-3.66,2.55a3,3,0,0,0,2.08,2.75s-3.19,0-4.71,1.2-.8,3,.88,3.7a.36.36,0,0,1,.22.47,2.69,2.69,0,0,0-.13,2.21c1,1.71,6.74,1.4,6.74,1.4a2.84,2.84,0,0,0-.48,2.6c.75,1.76,11.12.57,12.5.48s11.09-3.06,13.08-2.08,8.34,5.7,8.34,5.7Z"/><path fill="#eabdb9" d="M50.74,42c-1.27.38-4.79-.52-8,0a2.32,2.32,0,0,1,.76.17c2,1,8.34,5.7,8.34,5.7L59,37.38s-1.56-.67-3.59-1.6C53.91,38.44,51.9,41.66,50.74,42Z"/><path fill="none" stroke="#000" stroke-linecap="round" stroke-linejoin="round" stroke-width="2" d="M25.71,26.59c-4,.09-8.07.2-8.71.28-1.27.16-3.59,1-3.66,2.55a3,3,0,0,0,2.08,2.75s-3.19,0-4.71,1.2-.8,3,.88,3.7a.36.36,0,0,1,.22.47,2.69,2.69,0,0,0-.13,2.21c1,1.71,6.74,1.4,6.74,1.4a2.84,2.84,0,0,0-.48,2.6c.75,1.76,11.12.57,12.5.48s11.09-3.06,13.08-2.08,8.34,5.7,8.34,5.7L59,37.38S47,32.19,46.11,30.8,43,23.73,40.24,22.07L29.9,15.78a.71.71,0,0,0-1,.34c-.48,1.14-1.12,3.31.2,4.52,1.86,1.7,7.31,4.44,7.31,4.44a4.63,4.63,0,0,1-2.28,1.3c-.34,0-2.14.06-4.44.11"/><line x1="15.43" x2="28.25" y1="32.16" y2="31.75" fill="none" stroke="#000" stroke-linecap="round" stroke-linejoin="round" stroke-width="2"/><line x1="11.6" x2="25.71" y1="37.06" y2="36.71" fill="none" stroke="#000" stroke-linecap="round" stroke-linejoin="round" stroke-width="2"/><line x1="17.77" x2="25" y1="41.2" y2="40.79" fill="none" stroke="#000" stroke-linecap="round" stroke-linejoin="round" stroke-width="2"/><path fill="#e6e7e8" d="M6,8v6H16v3h6V10a2,2,0,0,0-2-2Z"/><path fill="#f2f3f4" d="M19,17V13a2,2,0,0,0-2-2H6v3H16v3Z"/><path fill="none" stroke="#000" stroke-linecap="round" stroke-linejoin="round" stroke-width="2" d="M6,8v6H16v3h6V10a2,2,0,0,0-2-2Z"/><path fill="#91cef4" d="M13,44.89a14.1,14.1,0,0,1-1.15,2.26,4.25,4.25,0,0,0-1.15,3.57c.35,1.75,2.89,2,3.93,1.08a2.82,2.82,0,0,0,.51-3.32C14.62,47.72,13.23,46.06,13,44.89Z"/><path fill="#7fb5da" d="M10.9,51.34a2.64,2.64,0,0,0,3.68.47,2.8,2.8,0,0,0,.8-2.5A5.17,5.17,0,0,1,10.9,51.34Z"/><path fill="none" stroke="#000" stroke-linecap="round" stroke-linejoin="round" stroke-width="2" d="M13,44.89a14.1,14.1,0,0,1-1.15,2.26,4.25,4.25,0,0,0-1.15,3.57c.35,1.75,2.89,2,3.93,1.08a2.82,2.82,0,0,0,.51-3.32C14.62,47.72,13.23,46.06,13,44.89Z"/><path fill="#91cef4" d="M20.53,47.71a17.55,17.55,0,0,1-1.43,2.81A5.29,5.29,0,0,0,17.67,55c.44,2.18,3.59,2.54,4.89,1.34a3.51,3.51,0,0,0,.64-4.13C22.61,51.23,20.88,49.17,20.53,47.71Z"/><path fill="#7fb5da" d="M18,55.73a3.29,3.29,0,0,0,4.58.58,3.48,3.48,0,0,0,1-3.11C22.13,55.38,19.54,55.73,18,55.73Z"/><path fill="none" stroke="#000" stroke-linecap="round" stroke-linejoin="round" stroke-width="2" d="M20.53,47.71a17.55,17.55,0,0,1-1.43,2.81A5.29,5.29,0,0,0,17.67,55c.44,2.18,3.59,2.54,4.89,1.34a3.51,3.51,0,0,0,.64-4.13C22.61,51.23,20.88,49.17,20.53,47.71Z"/><rect width="64" height="64" x="-.01" y=".07" fill="none"/></svg>