<svg xmlns="http://www.w3.org/2000/svg" viewBox="0 0 64 64"><g data-name="filled outline"><path fill="#5f9548" d="M54.5 50.8936a1 1 0 0 1-1-1V47.3311a1 1 0 1 1 2 0v2.5625A1 1 0 0 1 54.5 50.8936zM51.99 51.71a.9965.9965 0 0 1-.8095-.4121l-1.5069-2.0733a1 1 0 0 1 1.6172-1.1758l1.5069 2.0733A1 1 0 0 1 51.99 51.71zM50.4375 53.8457a.9982.9982 0 0 1-.3086-.0488l-2.4375-.792a1 1 0 0 1 .6172-1.9024l2.4375.792a1 1 0 0 1-.3086 1.9512zM48 57.2773a1 1 0 0 1-.3086-1.9511l2.4375-.792a1 1 0 1 1 .6172 1.9023l-2.4375.792A.9982.9982 0 0 1 48 57.2773zM50.4814 60.6943a1 1 0 0 1-.8076-1.5879l1.5069-2.0732a1 1 0 0 1 1.6172 1.1758L51.291 60.2822A.9963.9963 0 0 1 50.4814 60.6943zM54.5 62a1 1 0 0 1-1-1V58.4375a1 1 0 0 1 2 0V61A1 1 0 0 1 54.5 62zM58.5186 60.6943a.9963.9963 0 0 1-.81-.4121L56.2021 58.209a1 1 0 0 1 1.6172-1.1758l1.5069 2.0732a1 1 0 0 1-.8076 1.5879zM61 57.2773a.9982.9982 0 0 1-.3086-.0488l-2.4375-.792a1 1 0 1 1 .6172-1.9023l2.4375.792A1 1 0 0 1 61 57.2773zM58.5625 53.8457a1 1 0 0 1-.3086-1.9512l2.4375-.792a1 1 0 1 1 .6172 1.9024l-2.4375.792A.9982.9982 0 0 1 58.5625 53.8457zM57.01 51.71a1 1 0 0 1-.8077-1.5879l1.5069-2.0733a1 1 0 1 1 1.6172 1.1758l-1.5069 2.0733A.9965.9965 0 0 1 57.01 51.71z"/><path fill="#7eb457" d="M54.5,48.8936a5.272,5.272,0,1,0,5.2715,5.2714A5.278,5.278,0,0,0,54.5,48.8936Z"/><path fill="#5f9548" d="M53.6455 55.165A1.854 1.854 0 1 1 55.5 53.3115 1.8558 1.8558 0 0 1 53.6455 55.165zm0-2a.1461.1461 0 0 0-.1455.1465c0 .16.291.16.291 0A.1461.1461 0 0 0 53.6455 53.165zM55.3543 55.02a.8543.8543 0 1 0 .8543.8543.8543.8543 0 0 0-.8543-.8543zM54.209 6.5625a1 1 0 0 0 1-1V3a1 1 0 0 0-2 0V5.5625A1 1 0 0 0 54.209 6.5625zM50.9345 7.1114a.9862.9862 0 1 0 1.5953-1.16L51.0434 3.9063a.9862.9862 0 0 0-1.5954 1.16zM47.4924 8.7954l2.4046.7813A.9864.9864 0 1 0 50.5058 7.7l-2.4045-.7813a.9865.9865 0 1 0-.6089 1.8766zM51.14 10.9379a.9866.9866 0 0 0-1.2427-.6339l-2.4046.7813a.9865.9865 0 1 0 .6089 1.8766l2.4045-.7812A.9867.9867 0 0 0 51.14 10.9379zM50.9345 12.7693L49.448 14.8145a.9862.9862 0 1 0 1.5954 1.16L52.53 13.9292a.9862.9862 0 1 0-1.5953-1.16zM54.209 13.1681a.9859.9859 0 0 0-.9865.9865v2.5279a.9865.9865 0 0 0 1.973 0V14.1546A.986.986 0 0 0 54.209 13.1681zM57.4844 12.7693a.987.987 0 1 0-1.5972 1.16l1.4855 2.0452a.987.987 0 1 0 1.5972-1.16zM60.9256 11.0853L58.521 10.304a.9865.9865 0 0 0-.6088 1.8767l2.4045.7812a.9865.9865 0 1 0 .6089-1.8766zM57.32 8.8232a1 1 0 0 0 1.26.6426l2.4375-.792A1 1 0 1 0 60.4 6.7715l-2.4375.792A1 1 0 0 0 57.32 8.8232zM56.7188 7.3789a1 1 0 0 0 .81-.4121l1.5059-2.0732A1.0005 1.0005 0 1 0 57.416 3.7178L55.91 5.791a1 1 0 0 0 .8086 1.5879z"/><path fill="#7eb457" d="M54.209,4.5625A5.272,5.272,0,1,0,59.4805,9.835,5.2782,5.2782,0,0,0,54.209,4.5625Z"/><path fill="#5f9548" d="M53.3545 7.126A1.8545 1.8545 0 1 0 55.209 8.9805 1.8567 1.8567 0 0 0 53.3545 7.126zM53.209 8.9805a.1455.1455 0 0 1 .291 0C53.5 9.1406 53.209 9.1406 53.209 8.9805zM55.0629 10.6888a.8543.8543 0 1 0 .8544.8543A.8543.8543 0 0 0 55.0629 10.6888zM9.5 6.5625a1 1 0 0 1-1-1V3a1 1 0 0 1 2 0V5.5625A1 1 0 0 1 9.5 6.5625zM6.99 7.3789a.9965.9965 0 0 1-.8095-.4121L4.6738 4.8936A1 1 0 0 1 6.291 3.7178L7.7979 5.791A1 1 0 0 1 6.99 7.3789zM5.4375 9.5146a.9982.9982 0 0 1-.3086-.0488l-2.4375-.792a1 1 0 1 1 .6172-1.9023l2.4375.792a1 1 0 0 1-.3086 1.9511zM3 12.9463a1 1 0 0 1-.3086-1.9512l2.4375-.792a1 1 0 1 1 .6172 1.9024l-2.4375.792A.9982.9982 0 0 1 3 12.9463zM5.4814 16.3633a1 1 0 0 1-.8076-1.5879l1.5069-2.0733a1 1 0 0 1 1.6172 1.1758L6.291 15.9512A.9965.9965 0 0 1 5.4814 16.3633zM9.5 17.6689a.9994.9994 0 0 1-1-1V14.1064a1 1 0 0 1 2 0v2.5625A.9994.9994 0 0 1 9.5 17.6689zM13.5186 16.3633a.9965.9965 0 0 1-.81-.4121l-1.5069-2.0733a1 1 0 0 1 1.6172-1.1758l1.5069 2.0733a1 1 0 0 1-.8076 1.5879zM16 12.9463a.9982.9982 0 0 1-.3086-.0488l-2.4375-.792a1 1 0 1 1 .6172-1.9024l2.4375.792A1 1 0 0 1 16 12.9463zM13.5625 9.5146a1 1 0 0 1-.3086-1.9511l2.4375-.792a1 1 0 1 1 .6172 1.9023l-2.4375.792A.9982.9982 0 0 1 13.5625 9.5146zM12.01 7.3789a1 1 0 0 1-.8077-1.5879L12.709 3.7178a1 1 0 1 1 1.6172 1.1758L12.8193 6.9668A.9965.9965 0 0 1 12.01 7.3789z"/><path fill="#7eb457" d="M9.5,4.5625A5.272,5.272,0,1,0,14.7715,9.835,5.2783,5.2783,0,0,0,9.5,4.5625Z"/><path fill="#5f9548" d="M8.6455 10.835A1.8545 1.8545 0 1 1 10.5 8.9805 1.8568 1.8568 0 0 1 8.6455 10.835zm0-2A.1458.1458 0 0 0 8.5 8.9805c0 .16.291.16.291 0A.1458.1458 0 0 0 8.6455 8.835zM10.3543 10.6888a.8543.8543 0 1 0 .8543.8543.8543.8543 0 0 0-.8543-.8543z"/><path fill="#348fd9" d="M54,32c0,.34-.01.67-.03,1a22.0205,22.0205,0,0,1-20.4,20.94c-.52.04-1.04.06-1.57.06A22.026,22.026,0,0,1,10,32a22.2678,22.2678,0,0,1,.29-3.58A21.8118,21.8118,0,0,1,12.95,21a22.2272,22.2272,0,0,1,9.43-8.79A22.02,22.02,0,0,1,54,32Z"/><path fill="#7eb457" d="M36.6 16.72a1.0041 1.0041 0 0 1-.2 1.32l-3.76 3.14a.9518.9518 0 0 1-.64.23.982.982 0 0 1-.71-.29l-8.91-8.91a21.97 21.97 0 0 1 20.53.7l-7.06 2.66zM54 32c0 .34-.01.67-.03 1H50v4.09a1.002 1.002 0 0 1-.37.77l-6 4.88a.9783.9783 0 0 1-.63.23.9353.9353 0 0 1-.43-.1.9926.9926 0 0 1-.57-.9V34H37.85a.99.99 0 0 1-.86-.49l-2.84-4.75a.9982.9982 0 0 1 .15-1.22l6.25-6.25a1.0087 1.0087 0 0 1 .7-.29h9.79A21.8326 21.8326 0 0 1 54 32zM35.96 41.64L33 45.4v2.81a.995.995 0 0 1-.45.83 1.0157 1.0157 0 0 1-.55.17.934.934 0 0 1-.4-.09l-7-3.08a.9945.9945 0 0 1-.6-.92V40.44L17.73 39a1.0182 1.0182 0 0 1-.61-.42L10.29 28.42A21.8118 21.8118 0 0 1 12.95 21H25.34a1.0007 1.0007 0 0 1 .74.33l6.13 6.78a1.0083 1.0083 0 0 1 .23.94 1.0228 1.0228 0 0 1-.68.69L28 30.88v1.83l7.87 7.59A.9988.9988 0 0 1 35.96 41.64zM49.43 45.4a21.9264 21.9264 0 0 1-15.86 8.54l2.2-5.99a.8865.8865 0 0 1 .08-.17l1.93-3.26a1.0206 1.0206 0 0 1 .99-.48z"/><path fill="#f35244" d="M23 33H3a1 1 0 0 1-1-1V18a1 1 0 0 1 2 0V31H23a1 1 0 0 1 0 2zM45 59H40a1 1 0 0 1-1-1V50a1 1 0 0 1 2 0v7h4a1 1 0 0 1 0 2zM59 29H49a1 1 0 0 1 0-2h9V19a1 1 0 0 1 2 0v9A1 1 0 0 1 59 29z"/><path d="M61.3086,55.3262l-1.6019-.52a3.1973,3.1973,0,0,0,0-1.28l1.6018-.52a1,1,0,1,0-.6172-1.9024l-1.6023.5207a5.2778,5.2778,0,0,0-.7478-1.0435l.9849-1.3551a1,1,0,1,0-1.6172-1.1758l-.9846,1.3547A5.1962,5.1962,0,0,0,55.5,48.9947V47.3311a1,1,0,1,0-2,0v1.6636a5.1962,5.1962,0,0,0-1.2244.4088l-.9846-1.3547a1,1,0,0,0-1.6172,1.1758l.9849,1.3551a5.2778,5.2778,0,0,0-.7478,1.0435l-1.6023-.5207a1,1,0,0,0-.6172,1.9024l1.6018.52a3.1973,3.1973,0,0,0,0,1.28l-1.6019.52a1,1,0,0,0,.6172,1.9023l1.6025-.5207a5.2773,5.2773,0,0,0,.7477,1.0435l-.985,1.3551a1,1,0,1,0,1.6172,1.1758l.9846-1.3546a5.1962,5.1962,0,0,0,1.2244.4088V61a1,1,0,0,0,2,0V59.3364a5.1962,5.1962,0,0,0,1.2244-.4088l.9846,1.3546a1,1,0,0,0,1.6172-1.1758l-.985-1.3551a5.2773,5.2773,0,0,0,.7477-1.0435l1.6025.5207a1,1,0,1,0,.6172-1.9023ZM54.5,57.4375a3.272,3.272,0,1,1,3.2715-3.2725A3.2757,3.2757,0,0,1,54.5,57.4375Z"/><path d="M55.5,53.3115a1.8545,1.8545,0,1,0-1.8545,1.8535A1.8568,1.8568,0,0,0,55.5,53.3115Zm-2,0a.1455.1455,0,1,1,.291,0C53.791,53.4717,53.5,53.4717,53.5,53.3115Z"/><circle cx="55.354" cy="55.874" r=".854"/><path d="M46.7578,12.2549a1,1,0,0,0,1.26.6426l1.6023-.5207a5.2778,5.2778,0,0,0,.7478,1.0435l-.9849,1.3551A1,1,0,1,0,51,15.9512l.9846-1.3547a5.1962,5.1962,0,0,0,1.2244.4088v1.6636a1,1,0,1,0,2,0V15.0053a5.1927,5.1927,0,0,0,1.2235-.4083l.9835,1.3542a1.0005,1.0005,0,0,0,1.6192-1.1758L58.0507,13.42a5.2716,5.2716,0,0,0,.7473-1.0431l1.6024.5207a1,1,0,1,0,.6172-1.9024l-1.6018-.52a5.1733,5.1733,0,0,0,.0647-.64,5.1875,5.1875,0,0,0-.0648-.6407l1.6019-.5205A1,1,0,1,0,60.4,6.7715l-1.6025.5207a5.28,5.28,0,0,0-.7473-1.0431l.9846-1.3555A1.0005,1.0005,0,1,0,57.416,3.7178l-.9836,1.3541a5.1981,5.1981,0,0,0-1.2234-.4083V3a1,1,0,0,0-2,0V4.6636a5.1962,5.1962,0,0,0-1.2244.4088L51,3.7178a1,1,0,0,0-1.6172,1.1758l.9849,1.3551A5.2768,5.2768,0,0,0,49.62,7.2922l-1.6025-.5207A1,1,0,1,0,47.4,8.6738l1.6019.5205a5.1683,5.1683,0,0,0-.0648.6407,5.1733,5.1733,0,0,0,.0647.64l-1.6018.52A1,1,0,0,0,46.7578,12.2549ZM54.209,6.5625A3.272,3.272,0,1,1,50.9375,9.835,3.2757,3.2757,0,0,1,54.209,6.5625Z"/><path d="M53.3545 10.835A1.8545 1.8545 0 1 0 51.5 8.9805 1.8568 1.8568 0 0 0 53.3545 10.835zm0-2a.1458.1458 0 0 1 .1455.1455c0 .16-.291.16-.291 0A.1458.1458 0 0 1 53.3545 8.835zM54.2086 11.5431a.8544.8544 0 1 0 .8543-.8543A.8543.8543 0 0 0 54.2086 11.5431zM2.0488 12.2549a1 1 0 0 0 1.26.6426l1.6023-.5207A5.2778 5.2778 0 0 0 5.6587 13.42l-.9849 1.3551A1 1 0 1 0 6.291 15.9512l.9846-1.3547A5.1962 5.1962 0 0 0 8.5 15.0053v1.6636a1 1 0 0 0 2 0V15.0053a5.1962 5.1962 0 0 0 1.2244-.4088l.9846 1.3547a1 1 0 1 0 1.6172-1.1758L13.3413 13.42a5.2778 5.2778 0 0 0 .7478-1.0435l1.6023.5207a1 1 0 1 0 .6172-1.9024l-1.6018-.52a5.1733 5.1733 0 0 0 .0647-.64 5.1875 5.1875 0 0 0-.0648-.6407l1.6019-.5205a1 1 0 1 0-.6172-1.9023l-1.6025.5207a5.2773 5.2773 0 0 0-.7477-1.0435l.985-1.3551A1 1 0 1 0 12.709 3.7178l-.9846 1.3546A5.1962 5.1962 0 0 0 10.5 4.6636V3a1 1 0 0 0-2 0V4.6636a5.1962 5.1962 0 0 0-1.2244.4088L6.291 3.7178A1 1 0 0 0 4.6738 4.8936l.985 1.3551a5.2773 5.2773 0 0 0-.7477 1.0435L3.3086 6.7715a1 1 0 1 0-.6172 1.9023l1.6019.5205a5.1875 5.1875 0 0 0-.0648.6407 5.1733 5.1733 0 0 0 .0647.64l-1.6018.52A1 1 0 0 0 2.0488 12.2549zM9.5 6.5625A3.272 3.272 0 1 1 6.2285 9.835 3.2757 3.2757 0 0 1 9.5 6.5625z"/><path d="M8.6455,10.835A1.8545,1.8545,0,1,0,6.791,8.9805,1.8568,1.8568,0,0,0,8.6455,10.835Zm0-2a.1458.1458,0,0,1,.1455.1455c0,.16-.291.16-.291,0A.1458.1458,0,0,1,8.6455,8.835Z"/><circle cx="10.354" cy="11.543" r=".854"/><path d="M45,57H41V52.067A22.0992,22.0992,0,0,0,48.1205,46.95l.002-.002A21.8855,21.8855,0,0,0,53.79,29H59a1,1,0,0,0,1-1V19a1,1,0,0,0-2,0v8H53.42A22.081,22.081,0,0,0,40.89,11.8832c-.0261-.0133-.0513-.0246-.0785-.0355A21.986,21.986,0,0,0,10.0254,31H4V18a1,1,0,0,0-2,0V32a1,1,0,0,0,1,1h7.0254A21.9842,21.9842,0,0,0,39,52.8516V58a1,1,0,0,0,1,1h5a1,1,0,0,0,0-2Zm4-28h2.75a19.9706,19.9706,0,0,1,.1994,2H49a1,1,0,0,0-1,1v4.6133l-4,3.2529V33a1,1,0,0,0-1-1H38.417l-2.1514-3.5967L41.668,23h8.1681a19.8387,19.8387,0,0,1,1.5058,4H49a1,1,0,0,0,0,2ZM37.5374,12.7966l-3.5638,1.344a1,1,0,0,0-.4843,1.4834l.9482,1.4483L32.06,19.0605l-6.1173-6.1173a19.7869,19.7869,0,0,1,11.5942-.1466ZM26.3057,33.8574l7.5214,7.2539-2.6132,3.32A.9977.9977,0,0,0,31,45.05v1.6231l-5-2.2051V39.6445a1.0007,1.0007,0,0,0-.7764-.9746l-6.6621-1.5312L15.78,33H23a1,1,0,0,0,0-2H14.4359l-1.95-2.9023a.9647.9647,0,0,0-.0845-.0835A19.8121,19.8121,0,0,1,14.1639,23H24.8955l4.7774,5.28-2.9629.8984a1,1,0,0,0-.71.957v3.002A1,1,0,0,0,26.3057,33.8574ZM12.0507,33h1.32l3.7516,5.582a.998.998,0,0,0,.6064.417L24,40.44v4.68a1.0008,1.0008,0,0,0,.5967.9151l7,3.0869A1,1,0,0,0,33,48.207v-2.81l2.958-3.7588A1,1,0,0,0,35.8662,40.3L28,32.7129v-1.835l3.7627-1.1416a.9994.9994,0,0,0,.4512-1.6279L26.08,21.3291A.9981.9981,0,0,0,25.3389,21H15.3141a20.11,20.11,0,0,1,8.587-7.2708l7.3919,7.3919a1,1,0,0,0,1.3486.0605l3.7617-3.1455a1.0017,1.0017,0,0,0,.1953-1.3154l-.7529-1.1494,4.53-1.7083A20.1092,20.1092,0,0,1,48.6859,21h-7.432a.9993.9993,0,0,0-.707.293L34.3,27.54a1,1,0,0,0-.1514,1.2207l2.8428,4.753A1.0007,1.0007,0,0,0,37.85,34H42v7.9688a.9995.9995,0,0,0,1.6309.7753l6-4.88A.9993.9993,0,0,0,50,37.0889V33h1.9493a19.8877,19.8877,0,0,1-4.87,12.0977L38.7666,44.042a1.0107,1.0107,0,0,0-.9863.4814l-1.9336,3.2588a.9517.9517,0,0,0-.0781.166l-1.4338,3.9035A19.8782,19.8782,0,0,1,12.0507,33ZM36.616,51.4408l.9983-2.7172,1.5517-2.6142,6.1408.78A20.0428,20.0428,0,0,1,40.97,49.8506.9866.9866,0,0,0,40,49a1,1,0,0,0-1,1v.711A19.8039,19.8039,0,0,1,36.616,51.4408Z"/></g></svg>