<svg xmlns="http://www.w3.org/2000/svg" width="64" height="64" enable-background="new 0 0 64 64" viewBox="0 0 64 64"><pattern id="a" width="98" height="86" overflow="visible" patternUnits="userSpaceOnUse" viewBox="0 -86 98 86"><polygon fill="none" points="0 0 98 0 98 -86 0 -86"/><polygon fill="#6D6DA9" points="98 0 0 0 0 -86 98 -86"/></pattern><path fill="url(#a)" d="M63.03,17.794h-5.615V6.865c0-0.533-0.427-0.97-0.97-0.97H0.97
		C0.436,5.896,0,6.332,0,6.865V54.39c0,2.056,1.668,3.714,3.714,3.714h56.582c2.046,0,3.704-1.658,3.704-3.714V18.764
		C64,18.23,63.573,17.794,63.03,17.794z M55.476,56.165H3.714c-0.97,0-1.775-0.795-1.775-1.775V7.835h53.537V56.165z M62.061,54.39
		c0,0.979-0.785,1.775-1.765,1.775h-2.88V19.733h4.645V54.39z"/><path fill="#CFD8EE" d="M62.061,19.733V54.39c0,0.979-0.785,1.775-1.765,1.775h-2.88V19.733H62.061z"/><path fill="#E4EBF3" d="M1.939,7.835V54.39c0,0.979,0.805,1.775,1.775,1.775h51.762V7.835H1.939z M40.708,16.359
		c0-0.087,0.019-0.145,0.029-0.194c0.02-0.049,0.049-0.087,0.068-0.107c0.029-0.019,0.068-0.029,0.107-0.029
		c0.049,0,0.126,0.029,0.223,0.087c0.097,0.068,0.223,0.136,0.368,0.213c0.155,0.068,0.339,0.146,0.543,0.204
		c0.213,0.058,0.456,0.097,0.737,0.097c0.175,0,0.339-0.029,0.485-0.068c0.145-0.049,0.262-0.107,0.368-0.184
		c0.097-0.078,0.174-0.175,0.223-0.301c0.058-0.116,0.087-0.243,0.087-0.388c0-0.165-0.049-0.31-0.136-0.427
		c-0.097-0.126-0.213-0.223-0.359-0.32c-0.145-0.097-0.31-0.184-0.494-0.262c-0.184-0.078-0.378-0.165-0.572-0.262
		c-0.204-0.087-0.397-0.194-0.582-0.31c-0.184-0.116-0.349-0.252-0.494-0.407c-0.146-0.165-0.262-0.359-0.359-0.572
		c-0.087-0.223-0.136-0.485-0.136-0.795c0-0.349,0.068-0.659,0.204-0.921c0.126-0.271,0.301-0.495,0.524-0.669
		c0.223-0.175,0.485-0.31,0.785-0.398c0.301-0.087,0.621-0.126,0.96-0.126c0.175,0,0.349,0.01,0.524,0.039
		c0.175,0.029,0.33,0.058,0.485,0.107c0.155,0.049,0.281,0.097,0.407,0.155c0.116,0.058,0.194,0.107,0.233,0.136
		c0.029,0.039,0.058,0.078,0.068,0.097c0.019,0.029,0.029,0.068,0.039,0.107c0.01,0.049,0.019,0.097,0.019,0.165
		c0,0.068,0.01,0.155,0.01,0.252c0,0.107-0.01,0.204-0.01,0.272c-0.01,0.078-0.019,0.145-0.029,0.194
		c-0.02,0.049-0.029,0.087-0.058,0.107c-0.029,0.019-0.058,0.029-0.097,0.029c-0.049,0-0.107-0.019-0.204-0.077
		c-0.087-0.049-0.204-0.107-0.33-0.175c-0.136-0.058-0.291-0.116-0.465-0.165s-0.368-0.078-0.572-0.078
		c-0.165,0-0.301,0.019-0.427,0.058c-0.116,0.039-0.223,0.097-0.301,0.165c-0.087,0.068-0.146,0.155-0.184,0.252
		c-0.039,0.097-0.058,0.204-0.058,0.31c0,0.165,0.039,0.31,0.136,0.427c0.087,0.116,0.204,0.223,0.359,0.32
		c0.146,0.087,0.31,0.175,0.504,0.262c0.184,0.078,0.378,0.165,0.582,0.252c0.194,0.097,0.388,0.194,0.572,0.31
		c0.194,0.116,0.359,0.252,0.514,0.417c0.146,0.165,0.262,0.349,0.359,0.572c0.087,0.213,0.136,0.475,0.136,0.766
		c0,0.388-0.078,0.727-0.223,1.018c-0.146,0.291-0.34,0.533-0.582,0.727c-0.242,0.194-0.533,0.349-0.863,0.446
		c-0.33,0.097-0.679,0.145-1.057,0.145c-0.252,0-0.494-0.019-0.708-0.068c-0.213-0.039-0.407-0.087-0.572-0.145
		c-0.174-0.058-0.31-0.116-0.427-0.184c-0.107-0.068-0.184-0.126-0.233-0.175c-0.058-0.049-0.087-0.116-0.107-0.213
		c-0.019-0.087-0.039-0.223-0.039-0.398C40.688,16.533,40.698,16.436,40.708,16.359z M27.83,10.405
		c0.048-0.039,0.126-0.068,0.233-0.078c0.116-0.01,0.262-0.01,0.456-0.01c0.174,0,0.32,0,0.427,0.01
		c0.097,0,0.175,0.019,0.233,0.039c0.048,0.019,0.087,0.049,0.107,0.087c0.019,0.039,0.039,0.097,0.049,0.165l1.29,5.634
		l1.348-5.595c0.01-0.068,0.029-0.126,0.058-0.175c0.019-0.039,0.068-0.077,0.126-0.107c0.058-0.019,0.136-0.039,0.243-0.048
		c0.097-0.01,0.233-0.01,0.407-0.01c0.184,0,0.33,0,0.436,0.01c0.107,0.01,0.184,0.019,0.242,0.048
		c0.058,0.019,0.107,0.058,0.136,0.107c0.019,0.039,0.039,0.107,0.058,0.175l1.387,5.595h0.01l1.29-5.615
		c0.01-0.058,0.029-0.116,0.048-0.155c0.019-0.039,0.058-0.077,0.107-0.107c0.049-0.019,0.126-0.039,0.223-0.048
		c0.107-0.01,0.242-0.01,0.417-0.01c0.165,0,0.301,0,0.388,0.01c0.097,0.01,0.165,0.039,0.204,0.078
		c0.039,0.039,0.058,0.107,0.058,0.184c-0.01,0.087-0.029,0.194-0.058,0.33l-1.687,6.4c-0.029,0.097-0.058,0.165-0.097,0.223
		c-0.039,0.049-0.097,0.097-0.184,0.126c-0.077,0.029-0.174,0.048-0.301,0.048c-0.126,0.01-0.291,0.019-0.475,0.019
		c-0.223,0-0.398-0.01-0.524-0.019c-0.136,0-0.233-0.019-0.31-0.048c-0.078-0.029-0.126-0.078-0.165-0.126
		c-0.029-0.058-0.058-0.126-0.078-0.223l-1.173-4.655h-0.02l-1.105,4.655c-0.019,0.087-0.048,0.155-0.087,0.213
		c-0.029,0.058-0.087,0.097-0.155,0.126c-0.078,0.029-0.175,0.058-0.301,0.058c-0.136,0.01-0.301,0.019-0.504,0.019
		c-0.223,0-0.397-0.01-0.533-0.019c-0.126,0-0.233-0.019-0.301-0.048c-0.078-0.029-0.136-0.078-0.165-0.126
		c-0.039-0.058-0.068-0.126-0.087-0.223l-1.668-6.41c-0.039-0.136-0.058-0.243-0.058-0.32C27.762,10.512,27.791,10.444,27.83,10.405
		z M20.315,10.822c0-0.165,0.049-0.291,0.126-0.359c0.087-0.078,0.194-0.116,0.32-0.116h3.666c0.039,0,0.068,0.01,0.097,0.029
		c0.019,0.019,0.049,0.058,0.068,0.097c0.019,0.049,0.029,0.116,0.039,0.184c0.01,0.078,0.019,0.165,0.019,0.281
		c0,0.107-0.01,0.194-0.019,0.272c-0.01,0.077-0.019,0.136-0.039,0.175c-0.019,0.048-0.048,0.087-0.068,0.107
		c-0.029,0.019-0.058,0.029-0.097,0.029h-2.618v1.794h2.221c0.029,0,0.068,0.01,0.087,0.029c0.029,0.019,0.058,0.058,0.078,0.097
		c0.019,0.049,0.029,0.107,0.039,0.174c0.01,0.078,0.019,0.165,0.019,0.272c0,0.116-0.01,0.204-0.019,0.272
		c-0.01,0.078-0.019,0.136-0.039,0.175c-0.019,0.048-0.049,0.078-0.078,0.097c-0.019,0.019-0.058,0.029-0.087,0.029h-2.221v2.075
		h2.647c0.029,0,0.058,0.01,0.087,0.029c0.029,0.019,0.058,0.058,0.078,0.097c0.019,0.049,0.029,0.107,0.039,0.184
		c0.01,0.068,0.019,0.165,0.019,0.271c0,0.107-0.01,0.204-0.019,0.272c-0.01,0.078-0.019,0.136-0.039,0.184
		c-0.019,0.049-0.049,0.078-0.078,0.097c-0.029,0.019-0.058,0.029-0.087,0.029h-3.695c-0.126,0-0.233-0.029-0.32-0.107
		c-0.077-0.078-0.126-0.194-0.126-0.359V10.822z M10.327,10.88c0-0.174,0.048-0.31,0.155-0.398c0.107-0.087,0.233-0.136,0.378-0.136
		h0.805c0.146,0,0.262,0.01,0.369,0.039c0.097,0.029,0.184,0.068,0.262,0.126c0.077,0.049,0.145,0.136,0.213,0.233
		c0.068,0.097,0.146,0.223,0.213,0.368l1.435,2.686c0.078,0.165,0.165,0.33,0.242,0.485c0.087,0.155,0.165,0.31,0.233,0.475
		c0.078,0.155,0.155,0.31,0.223,0.456c0.078,0.155,0.145,0.31,0.213,0.456h0.01c-0.019-0.262-0.019-0.543-0.029-0.824
		c-0.01-0.291-0.01-0.562-0.01-0.824V10.57c0-0.039,0.01-0.068,0.039-0.097c0.019-0.039,0.058-0.058,0.107-0.087
		c0.058-0.019,0.126-0.039,0.213-0.048c0.087-0.01,0.194-0.01,0.339-0.01c0.126,0,0.233,0,0.32,0.01
		c0.087,0.01,0.155,0.029,0.204,0.048c0.049,0.029,0.078,0.049,0.097,0.087c0.019,0.029,0.029,0.058,0.029,0.097v6.613
		c0,0.087-0.019,0.165-0.049,0.233c-0.029,0.068-0.068,0.116-0.116,0.165c-0.058,0.049-0.116,0.078-0.184,0.097
		c-0.068,0.029-0.146,0.039-0.213,0.039h-0.64c-0.126,0-0.242-0.019-0.339-0.039c-0.097-0.029-0.184-0.078-0.272-0.146
		c-0.078-0.078-0.155-0.165-0.233-0.291c-0.078-0.116-0.165-0.271-0.252-0.456l-1.833-3.442c-0.107-0.204-0.213-0.427-0.32-0.659
		c-0.116-0.242-0.213-0.465-0.301-0.689h-0.01c0.01,0.272,0.029,0.543,0.029,0.815c0.01,0.272,0.019,0.543,0.019,0.834v3.85
		c0,0.039-0.01,0.068-0.039,0.097c-0.019,0.029-0.049,0.058-0.107,0.078c-0.048,0.019-0.116,0.039-0.204,0.048
		c-0.087,0.01-0.204,0.019-0.339,0.019c-0.126,0-0.242-0.01-0.33-0.019c-0.087-0.01-0.155-0.029-0.204-0.048
		c-0.048-0.019-0.078-0.049-0.097-0.078c-0.019-0.029-0.029-0.058-0.029-0.097V10.88z M4.664,21.673c0-0.533,0.436-0.97,0.97-0.97
		h16.65c0.533,0,0.97,0.436,0.97,0.97v15.913c0,0.543-0.436,0.97-0.97,0.97H5.634c-0.533,0-0.97-0.427-0.97-0.97V21.673z
		 M52.461,52.684H4.402c-0.533,0-0.97-0.436-0.97-0.97c0-0.533,0.436-0.97,0.97-0.97h48.058c0.533,0,0.97,0.436,0.97,0.97
		C53.43,52.247,52.994,52.684,52.461,52.684z M52.461,43.132H4.402c-0.533,0-0.97-0.436-0.97-0.97c0-0.533,0.436-0.97,0.97-0.97
		h48.058c0.533,0,0.97,0.436,0.97,0.97C53.43,42.696,52.994,43.132,52.461,43.132z M52.461,33.581H27.093
		c-0.533,0-0.97-0.436-0.97-0.97c0-0.543,0.436-0.97,0.97-0.97h25.367c0.533,0,0.97,0.427,0.97,0.97
		C53.43,33.144,52.994,33.581,52.461,33.581z M52.461,24.019H27.093c-0.533,0-0.97-0.427-0.97-0.97c0-0.533,0.436-0.97,0.97-0.97
		h25.367c0.533,0,0.97,0.436,0.97,0.97C53.43,23.593,52.994,24.019,52.461,24.019z"/><path fill="url(#a)" d="M22.284,20.703H5.634c-0.533,0-0.97,0.436-0.97,0.97v15.913c0,0.543,0.436,0.97,0.97,0.97
		h16.65c0.533,0,0.97-0.427,0.97-0.97V21.673C23.253,21.139,22.817,20.703,22.284,20.703z M21.314,36.616H6.604V22.642h14.71V36.616
		z"/><rect width="14.71" height="13.973" x="6.604" y="22.642" fill="#F5CD95"/><path fill="url(#a)" d="M53.43 23.05c0 .543-.436.97-.97.97H27.093c-.533 0-.97-.427-.97-.97 0-.533.436-.97.97-.97h25.367C52.994 22.08 53.43 22.516 53.43 23.05zM53.43 32.611c0 .533-.436.97-.97.97H27.093c-.533 0-.97-.436-.97-.97 0-.543.436-.97.97-.97h25.367C52.994 31.641 53.43 32.068 53.43 32.611zM53.43 42.162c0 .533-.436.97-.97.97H4.402c-.533 0-.97-.436-.97-.97 0-.533.436-.97.97-.97h48.058C52.994 41.193 53.43 41.629 53.43 42.162zM53.43 51.714c0 .533-.436.97-.97.97H4.402c-.533 0-.97-.436-.97-.97 0-.533.436-.97.97-.97h48.058C52.994 50.744 53.43 51.181 53.43 51.714zM16.388 10.57v6.613c0 .087-.019.165-.049.233-.029.068-.068.116-.116.165-.058.049-.116.078-.184.097-.068.029-.146.039-.213.039h-.64c-.126 0-.242-.019-.339-.039-.097-.029-.184-.078-.272-.146-.078-.078-.155-.165-.233-.291-.078-.116-.165-.271-.252-.456l-1.833-3.442c-.107-.204-.213-.427-.32-.659-.116-.242-.213-.465-.301-.689h-.01c.01.272.029.543.029.815.01.272.019.543.019.834v3.85c0 .039-.01.068-.039.097-.019.029-.049.058-.107.078-.048.019-.116.039-.204.048-.087.01-.204.019-.339.019-.126 0-.242-.01-.33-.019-.087-.01-.155-.029-.204-.048-.048-.019-.078-.049-.097-.078-.019-.029-.029-.058-.029-.097V10.88c0-.174.048-.31.155-.398.107-.087.233-.136.378-.136h.805c.146 0 .262.01.369.039.097.029.184.068.262.126.077.049.145.136.213.233.068.097.146.223.213.368l1.435 2.686c.078.165.165.33.242.485.087.155.165.31.233.475.078.155.155.31.223.456.078.155.145.31.213.456h.01c-.019-.262-.019-.543-.029-.824-.01-.291-.01-.562-.01-.824V10.57c0-.039.01-.068.039-.097.019-.039.058-.058.107-.087.058-.019.126-.039.213-.048.087-.01.194-.01.339-.01.126 0 .233 0 .32.01.087.01.155.029.204.048.049.029.078.049.097.087C16.378 10.502 16.388 10.531 16.388 10.57zM24.679 17.115c0 .107-.01.204-.019.272-.01.078-.019.136-.039.184-.019.049-.049.078-.078.097-.029.019-.058.029-.087.029h-3.695c-.126 0-.233-.029-.32-.107-.077-.078-.126-.194-.126-.359v-6.41c0-.165.049-.291.126-.359.087-.078.194-.116.32-.116h3.666c.039 0 .068.01.097.029.019.019.049.058.068.097.019.049.029.116.039.184.01.078.019.165.019.281 0 .107-.01.194-.019.272-.01.077-.019.136-.039.175-.019.048-.048.087-.068.107-.029.019-.058.029-.097.029h-2.618v1.794h2.221c.029 0 .068.01.087.029.029.019.058.058.078.097.019.049.029.107.039.174.01.078.019.165.019.272 0 .116-.01.204-.019.272-.01.078-.019.136-.039.175-.019.048-.049.078-.078.097-.019.019-.058.029-.087.029h-2.221v2.075h2.647c.029 0 .058.01.087.029.029.019.058.058.078.097.019.049.029.107.039.184C24.669 16.912 24.679 17.009 24.679 17.115zM37.808 10.589c-.01.087-.029.194-.058.33l-1.687 6.4c-.029.097-.058.165-.097.223-.039.049-.097.097-.184.126-.077.029-.174.048-.301.048-.126.01-.291.019-.475.019-.223 0-.398-.01-.524-.019-.136 0-.233-.019-.31-.048-.078-.029-.126-.078-.165-.126-.029-.058-.058-.126-.078-.223l-1.173-4.655h-.02l-1.105 4.655c-.019.087-.048.155-.087.213-.029.058-.087.097-.155.126-.078.029-.175.058-.301.058-.136.01-.301.019-.504.019-.223 0-.397-.01-.533-.019-.126 0-.233-.019-.301-.048-.078-.029-.136-.078-.165-.126-.039-.058-.068-.126-.087-.223l-1.668-6.41c-.039-.136-.058-.243-.058-.32-.01-.078.019-.146.058-.184.048-.039.126-.068.233-.078.116-.01.262-.01.456-.01.174 0 .32 0 .427.01.097 0 .175.019.233.039.048.019.087.049.107.087.019.039.039.097.049.165l1.29 5.634 1.348-5.595c.01-.068.029-.126.058-.175.019-.039.068-.077.126-.107.058-.019.136-.039.243-.048.097-.01.233-.01.407-.01.184 0 .33 0 .436.01.107.01.184.019.242.048.058.019.107.058.136.107.019.039.039.107.058.175l1.387 5.595h.01l1.29-5.615c.01-.058.029-.116.048-.155.019-.039.058-.077.107-.107.049-.019.126-.039.223-.048.107-.01.242-.01.417-.01.165 0 .301 0 .388.01.097.01.165.039.204.078C37.789 10.444 37.808 10.512 37.808 10.589zM45.498 15.496c0 .388-.078.727-.223 1.018-.146.291-.34.533-.582.727-.242.194-.533.349-.863.446-.33.097-.679.145-1.057.145-.252 0-.494-.019-.708-.068-.213-.039-.407-.087-.572-.145-.174-.058-.31-.116-.427-.184-.107-.068-.184-.126-.233-.175-.058-.049-.087-.116-.107-.213-.019-.087-.039-.223-.039-.398 0-.116.01-.213.019-.291 0-.087.019-.145.029-.194.02-.049.049-.087.068-.107.029-.019.068-.029.107-.029.049 0 .126.029.223.087.097.068.223.136.368.213.155.068.339.146.543.204.213.058.456.097.737.097.175 0 .339-.029.485-.068.145-.049.262-.107.368-.184.097-.078.174-.175.223-.301.058-.116.087-.243.087-.388 0-.165-.049-.31-.136-.427-.097-.126-.213-.223-.359-.32-.145-.097-.31-.184-.494-.262-.184-.078-.378-.165-.572-.262-.204-.087-.397-.194-.582-.31-.184-.116-.349-.252-.494-.407-.146-.165-.262-.359-.359-.572-.087-.223-.136-.485-.136-.795 0-.349.068-.659.204-.921.126-.271.301-.495.524-.669.223-.175.485-.31.785-.398.301-.087.621-.126.96-.126.175 0 .349.01.524.039.175.029.33.058.485.107.155.049.281.097.407.155.116.058.194.107.233.136.029.039.058.078.068.097.019.029.029.068.039.107.01.049.019.097.019.165 0 .068.01.155.01.252 0 .107-.01.204-.01.272-.01.078-.019.145-.029.194-.02.049-.029.087-.058.107-.029.019-.058.029-.097.029-.049 0-.107-.019-.204-.077-.087-.049-.204-.107-.33-.175-.136-.058-.291-.116-.465-.165s-.368-.078-.572-.078c-.165 0-.301.019-.427.058-.116.039-.223.097-.301.165-.087.068-.146.155-.184.252-.039.097-.058.204-.058.31 0 .165.039.31.136.427.087.116.204.223.359.32.146.087.31.175.504.262.184.078.378.165.582.252.194.097.388.194.572.31.194.116.359.252.514.417.146.165.262.349.359.572C45.45 14.943 45.498 15.205 45.498 15.496z"/></svg>