<svg xmlns="http://www.w3.org/2000/svg" id="Layer_1" enable-background="new 0 0 64 64" viewBox="0 0 64 64"><path fill="#2b2e63" d="M29.33 37.36h-.48c-.36 0-.68.19-.85.51l-1.03 1.88-1.03-1.88c-.17-.32-.5-.51-.85-.51h-.48c-3.24 0-5.88 2.64-5.88 5.88v3.26c0 .53.43.97.97.97h14.54c.54 0 .97-.44.97-.97v-3.26C35.22 40 32.57 37.36 29.33 37.36zM33.28 45.53h-12.6v-2.29c0-2.14 1.71-3.89 3.85-3.94l1.6 2.93c.34.63 1.36.63 1.7 0l1.6-2.93c2.13.05 3.85 1.8 3.85 3.94V45.53zM26.97 27.15c-2.46 0-4.46 2-4.46 4.46 0 2.46 2 4.46 4.46 4.46 2.46 0 4.46-2 4.46-4.46C31.43 29.15 29.43 27.15 26.97 27.15zM26.97 34.13c-1.39 0-2.52-1.13-2.52-2.52 0-1.39 1.13-2.52 2.52-2.52 1.39 0 2.52 1.13 2.52 2.52C29.49 33 28.36 34.13 26.97 34.13z"/><path fill="#2b2e63" d="M58.71,14.63h-19.3c-0.3-1.77-1.38-3.3-2.93-4.17l4.12-5.4c0.33-0.43,0.24-1.04-0.18-1.36
			c-0.43-0.32-1.03-0.25-1.36,0.18l-4.51,5.9c-0.78-0.12-1.59-0.09-2.35,0.1l-0.17-0.22l-7.09-9.28C24.61-0.04,24-0.12,23.57,0.2
			c-0.42,0.33-0.5,0.94-0.18,1.36l6.97,9.11c-1.38,0.9-2.31,2.34-2.58,3.96H5.28c-2.14,0-3.87,1.74-3.87,3.88v37.61
			c0,2.13,1.73,3.87,3.87,3.87h9.36l-2.29,2.37c-0.37,0.38-0.36,1,0.03,1.37c0.18,0.18,0.43,0.27,0.67,0.27
			c0.25,0,0.51-0.09,0.7-0.29l3.59-3.72h29.29l3.61,3.72c0.19,0.2,0.44,0.29,0.69,0.29s0.49-0.09,0.68-0.27
			c0.38-0.37,0.39-0.99,0.02-1.37l-2.29-2.37h9.36c2.14,0,3.88-1.74,3.88-3.87V18.51C62.59,16.37,60.85,14.63,58.71,14.63z
			 M32.01,11.97c0.9-0.4,1.96-0.44,2.89-0.11c1.27,0.44,2.19,1.5,2.51,2.77h-7.65C30.06,13.46,30.87,12.46,32.01,11.97z
			 M60.65,56.12c0,1.06-0.87,1.93-1.94,1.93H5.28c-1.07,0-1.94-0.87-1.94-1.93V18.51c0-1.07,0.87-1.94,1.94-1.94h53.42
			c1.07,0,1.94,0.87,1.94,1.94V56.12z"/><path fill="#51bf9f" d="M58.71,16.57H5.28c-1.07,0-1.94,0.87-1.94,1.94v37.61c0,1.06,0.87,1.93,1.94,1.93h53.42
			c1.07,0,1.94-0.87,1.94-1.93V18.51C60.65,17.44,59.78,16.57,58.71,16.57z M48.11,51.18c0,1.6-1.3,2.91-2.91,2.91H8.75
			c-1.61,0-2.91-1.31-2.91-2.91V23.44c0-1.6,1.3-2.9,2.91-2.9H45.2c1.61,0,2.91,1.3,2.91,2.9V51.18z M54.38,51.04
			c-1.87,0-3.39-1.52-3.39-3.39c0-1.87,1.52-3.39,3.39-3.39c1.87,0,3.39,1.52,3.39,3.39C57.77,49.52,56.25,51.04,54.38,51.04z
			 M54.38,40.7c-1.87,0-3.39-1.52-3.39-3.39c0-1.87,1.52-3.39,3.39-3.39c1.87,0,3.39,1.52,3.39,3.39
			C57.77,39.18,56.25,40.7,54.38,40.7z M54.38,30.85c-2.14,0-3.88-1.74-3.88-3.88c0-2.14,1.74-3.88,3.88-3.88
			c2.14,0,3.88,1.74,3.88,3.88C58.26,29.11,56.52,30.85,54.38,30.85z"/><path fill="#3da580" d="M58.71,16.57H5.28c-1.07,0-1.94,0.87-1.94,1.94v37.61c0,1.06,0.87,1.93,1.94,1.93h53.42
			c1.07,0,1.94-0.87,1.94-1.93V18.51C60.65,17.44,59.78,16.57,58.71,16.57z M59.65,56.12c0,0.51-0.42,0.93-0.94,0.93H5.28
			c-0.52,0-0.94-0.42-0.94-0.93V18.51c0-0.52,0.42-0.94,0.94-0.94h53.42c0.52,0,0.94,0.42,0.94,0.94V56.12z"/><path fill="#2b2e63" d="M45.2,20.54H8.75c-1.61,0-2.91,1.3-2.91,2.9v27.74c0,1.6,1.3,2.91,2.91,2.91H45.2c1.61,0,2.91-1.31,2.91-2.91
			V23.44C48.11,21.84,46.81,20.54,45.2,20.54z M46.17,51.18c0,0.53-0.43,0.97-0.97,0.97H8.75c-0.54,0-0.97-0.44-0.97-0.97V23.44
			c0-0.53,0.43-0.97,0.97-0.97H45.2c0.54,0,0.97,0.44,0.97,0.97V51.18z"/><path fill="#ededed" d="M45.2,22.47H8.75c-0.54,0-0.97,0.44-0.97,0.97v27.74c0,0.53,0.43,0.97,0.97,0.97H45.2
			c0.54,0,0.97-0.44,0.97-0.97V23.44C46.17,22.91,45.74,22.47,45.2,22.47z M26.97,27.15c2.46,0,4.46,2,4.46,4.46
			c0,2.46-2,4.46-4.46,4.46c-2.46,0-4.46-2-4.46-4.46C22.51,29.15,24.51,27.15,26.97,27.15z M35.22,46.5c0,0.53-0.43,0.97-0.97,0.97
			H19.7c-0.54,0-0.97-0.44-0.97-0.97v-3.26c0-3.24,2.64-5.88,5.88-5.88h0.48c0.35,0,0.68,0.19,0.85,0.51l1.03,1.88L28,37.87
			c0.17-0.32,0.49-0.51,0.85-0.51h0.48c3.24,0,5.88,2.64,5.88,5.88V46.5z"/><path fill="#d6d6d6" d="M45.2,22.47H8.75c-0.54,0-0.97,0.44-0.97,0.97v27.74c0,0.53,0.43,0.97,0.97,0.97H45.2
			c0.54,0,0.97-0.44,0.97-0.97V23.44C46.17,22.91,45.74,22.47,45.2,22.47z M44.67,50.65H9.28V23.97h35.38V50.65z"/><path fill="#4ebde5" d="M33.28,43.24v2.29h-12.6v-2.29c0-2.14,1.71-3.89,3.85-3.94l1.6,2.93c0.34,0.63,1.36,0.63,1.7,0l1.6-2.93
			C31.55,39.35,33.28,41.1,33.28,43.24z"/><path fill="#ffe5ab" d="M29.49,31.61c0,1.39-1.13,2.52-2.52,2.52c-1.39,0-2.52-1.13-2.52-2.52c0-1.39,1.13-2.52,2.52-2.52
			C28.36,29.09,29.49,30.22,29.49,31.61z"/><path fill="#2b2e63" d="M54.38,23.09c-2.14,0-3.88,1.74-3.88,3.88c0,2.14,1.74,3.88,3.88,3.88c2.14,0,3.88-1.74,3.88-3.88
			C58.26,24.83,56.52,23.09,54.38,23.09z M54.38,28.91c-1.07,0-1.94-0.87-1.94-1.94c0-1.07,0.87-1.94,1.94-1.94s1.94,0.87,1.94,1.94
			C56.32,28.04,55.45,28.91,54.38,28.91z"/><circle cx="54.38" cy="26.97" r="1.94" fill="#f26e61"/><path fill="#2b2e63" d="M54.38,33.92c-1.87,0-3.39,1.52-3.39,3.39c0,1.87,1.52,3.39,3.39,3.39c1.87,0,3.39-1.52,3.39-3.39
			C57.77,35.44,56.25,33.92,54.38,33.92z M54.38,38.76c-0.8,0-1.45-0.65-1.45-1.45c0-0.8,0.65-1.45,1.45-1.45
			c0.8,0,1.45,0.65,1.45,1.45C55.83,38.11,55.18,38.76,54.38,38.76z"/><circle cx="54.38" cy="37.31" r="1.45" fill="#ffdc7c"/><path fill="#2b2e63" d="M54.38,44.26c-1.87,0-3.39,1.52-3.39,3.39c0,1.87,1.52,3.39,3.39,3.39c1.87,0,3.39-1.52,3.39-3.39
			C57.77,45.78,56.25,44.26,54.38,44.26z M54.38,49.1c-0.8,0-1.45-0.65-1.45-1.45c0-0.8,0.65-1.45,1.45-1.45
			c0.8,0,1.45,0.65,1.45,1.45C55.83,48.45,55.18,49.1,54.38,49.1z"/><path fill="#ffdc7c" d="M55.83,47.65c0,0.8-0.65,1.45-1.45,1.45c-0.8,0-1.45-0.65-1.45-1.45c0-0.8,0.65-1.45,1.45-1.45
			C55.18,46.2,55.83,46.85,55.83,47.65z"/></svg>